<?xml version="1.0" standalone="no"?>
<!DOCTYPE svg PUBLIC "-//W3C//DTD SVG 20010904//EN"
 "http://www.w3.org/TR/2001/REC-SVG-20010904/DTD/svg10.dtd">
<svg version="1.0" xmlns="http://www.w3.org/2000/svg"
 width="700.000000pt" height="700.000000pt" viewBox="0 0 700.000000 700.000000"
 preserveAspectRatio="xMidYMid meet">
<metadata>
Created by potrace 1.11, written by Peter Selinger 2001-2013
</metadata>
<g transform="translate(0.000000,700.000000) scale(0.100000,-0.100000)"
fill="#000000" stroke="none">
<path d="M3367 6995 c-1 -2 -49 -5 -107 -9 -58 -3 -114 -8 -125 -10 -11 -2
-46 -7 -79 -11 -32 -3 -68 -8 -80 -10 -11 -2 -38 -6 -58 -9 -131 -20 -399 -89
-560 -145 -601 -210 -1156 -600 -1555 -1095 -41 -50 -81 -99 -89 -109 -9 -11
-53 -75 -99 -143 -253 -375 -438 -811 -523 -1234 -32 -156 -32 -155 -57 -345
-23 -172 -23 -636 0 -754 2 -10 6 -42 10 -72 78 -660 378 -1328 830 -1849 89
-102 289 -300 369 -365 27 -22 54 -45 60 -50 73 -67 320 -239 456 -317 117
-67 317 -165 430 -212 79 -32 346 -124 380 -131 8 -2 44 -11 80 -20 69 -18 76
-20 155 -36 95 -20 193 -37 250 -43 22 -3 72 -8 110 -13 145 -17 677 -9 795
12 14 2 43 6 65 9 22 3 49 7 60 9 11 3 40 8 65 12 25 4 83 16 130 27 47 11 95
22 108 24 51 10 264 78 377 121 119 45 359 158 485 229 104 58 337 216 440
299 516 413 895 940 1118 1555 50 136 123 392 137 480 3 19 8 42 10 50 2 8 7
35 10 60 8 59 13 93 25 160 9 57 7 854 -3 902 -3 16 -8 47 -12 70 -141 902
-628 1712 -1360 2265 -74 55 -292 203 -300 203 -2 0 -38 20 -79 45 -84 50
-265 138 -366 179 -36 15 -74 31 -85 36 -104 48 -486 155 -645 180 -41 7 -84
14 -95 16 -47 9 -110 16 -255 30 -69 6 -417 13 -423 9z m439 -487 c5 -3 41 -9
81 -12 40 -4 78 -8 85 -11 7 -2 32 -6 55 -9 85 -11 281 -59 418 -103 967 -312
1714 -1092 1985 -2072 30 -107 63 -264 75 -356 4 -27 9 -61 11 -75 30 -193 24
-611 -12 -835 -89 -555 -317 -1057 -668 -1474 -39 -46 -79 -93 -88 -105 -20
-25 -18 -30 -54 118 -88 366 -239 683 -453 951 -310 389 -790 653 -1326 730
-23 3 -52 7 -65 10 -93 18 -403 24 -555 12 -389 -33 -751 -150 -1034 -334
-475 -309 -798 -821 -922 -1461 -6 -34 -15 -61 -19 -60 -12 5 -121 131 -193
223 -222 286 -381 588 -493 939 -14 43 -27 86 -29 95 -3 9 -12 43 -21 76 -16
58 -19 73 -29 125 -3 14 -7 34 -9 45 -2 11 -9 54 -16 95 -6 41 -13 86 -16 100
-24 150 -23 623 1 749 2 10 6 42 10 71 4 29 9 62 11 74 23 122 39 192 56 250
11 38 21 78 23 89 8 37 78 233 118 327 45 106 152 317 173 341 8 8 14 19 14
22 0 21 200 304 291 412 67 80 286 295 379 372 266 221 570 394 900 513 100
36 331 103 395 115 159 29 256 43 355 51 36 3 66 7 68 9 6 5 488 -2 498 -7z
m19 -3722 c463 -71 794 -251 1057 -576 200 -247 368 -680 403 -1042 4 -34 8
-72 10 -84 4 -30 0 -34 -100 -101 -297 -198 -612 -336 -960 -422 -126 -31
-155 -37 -220 -46 -22 -3 -51 -7 -65 -10 -171 -33 -562 -39 -785 -11 -16 2
-55 7 -85 10 -311 39 -715 175 -1009 338 -58 32 -106 58 -107 58 -7 0 -190
124 -195 132 -16 24 19 285 63 466 155 648 543 1074 1123 1236 50 14 106 28
125 31 19 3 60 10 90 15 30 6 87 13 125 16 39 3 72 8 74 10 11 10 360 -6 456
-20z"/>
<path d="M3478 5586 c-1 -2 -32 -6 -68 -9 -148 -14 -234 -39 -375 -110 -275
-138 -469 -402 -529 -717 -18 -94 -18 -264 0 -358 83 -435 431 -764 867 -820
112 -14 265 -6 362 20 22 6 45 11 50 13 6 1 17 5 25 8 8 4 35 14 60 22 217 76
438 285 546 521 104 224 118 502 38 744 -15 44 -73 167 -97 205 -52 83 -160
204 -227 254 -19 14 -37 29 -40 33 -3 4 -42 28 -85 53 -138 78 -278 122 -418
131 -45 3 -87 7 -94 9 -6 2 -13 2 -15 1z m121 -491 c191 -28 369 -198 416
-396 64 -274 -82 -535 -355 -634 -65 -24 -240 -27 -305 -6 -326 105 -478 446
-334 749 43 89 149 197 239 240 107 53 208 67 339 47z"/>
</g>
</svg>
