 <svg id="formSvg" xmlns="http://www.w3.org/2000/svg" width="411" height="411">
                <g fill="none" stroke="#f9faff" stroke-width="80">
                    <path d="M597.9 52.77c302.25 0 547.27 245.01 547.27 547.26S900.15 1147.3 597.9 1147.3c-302.24 0-547.26-245.02-547.26-547.27S295.66 52.77 597.9 52.77z"
                          transform="translate(-2.8 -4.25) scale(.34993)"/>
                    <path d="M595.04 290.01c71.47 0 129.4 57.94 129.4 129.4 0 71.47-57.93 129.4-129.4 129.4s-129.4-57.93-129.4-129.4c0-71.46 57.93-129.4 129.4-129.4zm342.56 741.81s8.31-351.16-340.03-356.7c-348.33 5.92-334.14 358.1-334.14 358.1"
                          transform="translate(-2.8 -4.25) scale(.34993)"/>
                </g>
            </svg>
